<svg id="Layer_1" enable-background="new 0 0 512 512" height="512" viewBox="0 0 512 512" width="512" xmlns="http://www.w3.org/2000/svg"><g><circle cx="256" cy="256" fill="#ff4d4f" r="256"/><path d="m256 512v-512c141.159 0 256 114.841 256 256s-114.841 256-256 256z" fill="#d2303a"/><path d="m191.733 80.333c-26.031 0-47.133 21.102-47.133 47.133v120.5c0 8.284 6.716 15 15 15h64.267c8.284 0 15-6.716 15-15v-120.5c-.001-26.03-21.103-47.133-47.134-47.133z" fill="#f8e0ad"/><path d="m174.6 232.967v-105.5c0-9.447 7.686-17.133 17.133-17.133s17.134 7.686 17.134 17.133v105.5z" fill="#f0c69e"/><path d="m320.267 80.333c-26.031 0-47.133 21.102-47.133 47.133v120.5c0 8.284 6.716 15 15 15h64.266c8.284 0 15-6.716 15-15v-120.5c0-26.03-21.102-47.133-47.133-47.133z" fill="#f0c69e"/><path d="m303.134 232.967v-105.5c0-9.447 7.686-17.133 17.133-17.133s17.134 7.686 17.134 17.133v105.5z" fill="#daba94"/><path d="m304.2 431.667h-96.4c-52.566 0-95.333-42.766-95.333-95.333 0-44.939 21.463-87.865 57.413-114.827l14.46-10.845c20.834-15.627 45.614-23.887 71.66-23.887s50.826 8.26 71.66 23.887l14.46 10.845c35.95 26.962 57.413 69.888 57.413 114.827 0 52.566-42.766 95.333-95.333 95.333z" fill="#fef6d7"/><path d="m304.2 431.667c52.566 0 95.333-42.766 95.333-95.333 0-44.939-21.463-87.865-57.413-114.827l-14.46-10.845c-20.834-15.627-45.614-23.887-71.66-23.887v244.892z" fill="#f8e0ad"/><circle clip-rule="evenodd" cx="207.8" cy="288.133" fill="#4e1d06" fill-rule="evenodd" r="15"/><circle clip-rule="evenodd" cx="304.2" cy="288.133" fill="#2a0f00" fill-rule="evenodd" r="15"/><path d="m256 431.667c-8.284 0-15-6.716-15-15v-80.333c0-8.284 6.716-15 15-15s15 6.716 15 15v80.333c0 8.284-6.716 15-15 15z" fill="#f8e0ad"/><path d="m271 416.667v-80.333c0-8.284-6.716-15-15-15v110.333c8.284 0 15-6.716 15-15z" fill="#f0c69e"/><path d="m280.1 351.333h-48.2c-8.284 0-15-6.716-15-15s6.716-15 15-15h48.2c8.284 0 15 6.716 15 15s-6.716 15-15 15z" fill="#4e1d06"/><path d="m280.1 321.333h-24.1v30h24.1c8.284 0 15-6.716 15-15s-6.716-15-15-15z" fill="#2a0f00"/></g></svg>