<?xml version="1.0" encoding="UTF-8" standalone="no"?>
<!DOCTYPE svg PUBLIC "-//W3C//DTD SVG 1.1//EN" "http://www.w3.org/Graphics/SVG/1.1/DTD/svg11.dtd">
<svg width="100%" height="100%" viewBox="0 0 512 512" version="1.1" xmlns="http://www.w3.org/2000/svg" xmlns:xlink="http://www.w3.org/1999/xlink" xml:space="preserve" xmlns:serif="http://www.serif.com/" style="fill-rule:evenodd;clip-rule:evenodd;stroke-linejoin:round;stroke-miterlimit:2;">
    <g transform="matrix(1.46316,0,0,1.46316,216.648,191.321)">
        <rect x="0" y="0" width="200" height="200" style="fill:rgb(183,34,255);fill-opacity:0;"/>
        <g transform="matrix(4.57606,0,0,4.57606,-110.976,-111.95)">
            <g>
                <g transform="matrix(1,0,0,1,0,-752.043)">
                    <g>
                        <g>
                            <g>
                                <path d="M29.946,752.044C29.734,752.053 29.527,752.113 29.337,752.221L0.819,768.409C0.318,768.693 0,769.277 0,769.914L0,802.29C0,802.926 0.318,803.51 0.819,803.795L15.078,811.889L29.337,819.983C29.754,820.219 30.246,820.219 30.663,819.983L44.922,811.889L59.181,803.795C59.682,803.51 60,802.926 60,802.29L60,769.914C60,769.277 59.682,768.693 59.181,768.409L44.922,760.315L30.663,752.221C30.441,752.094 30.194,752.034 29.946,752.044ZM30,755.607L43.596,763.324L57.036,770.953L57.036,801.25L43.596,808.879L30,816.597L16.404,808.879L2.964,801.25L2.964,770.953L16.404,763.324L30,755.607Z" style="fill:rgb(51,51,51);"/>
                            </g>
                        </g>
                    </g>
                </g>
                <g transform="matrix(1,0,0,1,5.76019,41.1958)">
                    <g>
                        <path d="M19.187,9.04C16.552,8.634 13.87,8.534 11.141,8.739C8.417,8.94 5.847,8.632 3.431,7.816C2.428,6.407 1.879,4.833 1.786,3.095C1.692,1.356 1.739,-7.068 1.926,-22.178L2.541,-23.074C3.072,-24.139 4.184,-24.342 5.878,-23.682L6.962,-21.85C6.993,-9.656 7.336,-1.382 7.992,2.974C10.408,3.162 12.878,3.162 15.401,2.974C17.925,2.787 20.096,3.289 21.915,4.479C22.477,5.482 22.571,6.392 22.196,7.208C21.786,7.805 21.331,8.204 20.832,8.405C20.328,8.61 19.78,8.821 19.187,9.04ZM42.787,9.655L40.065,7.535C38.87,8.133 37.513,8.431 35.992,8.431L31.599,8.431L27.981,6.927C26.349,4.702 25.636,2.123 25.841,-0.811C26.041,-3.74 26.048,-6.616 25.861,-9.438L26.757,-11.551C27.573,-12.554 28.685,-12.759 30.094,-12.166C31.503,-10.16 32.051,-7.84 31.739,-5.205C31.427,-2.574 31.474,-0.051 31.88,2.366L36.721,2.693C37.756,2.506 38.462,1.786 38.841,0.533C38.841,-1.067 38.795,-2.73 38.701,-4.456C38.607,-6.177 38.966,-7.744 39.778,-9.157C40.75,-10.535 41.864,-10.737 43.121,-9.766C44.125,-6.912 44.673,-3.872 44.767,-0.644C44.86,2.584 45.518,5.5 46.739,8.104C46.334,8.915 45.776,9.423 45.068,9.628C44.363,9.833 43.603,9.842 42.787,9.655Z" style="fill:rgb(51,51,51);fill-rule:nonzero;"/>
                    </g>
                </g>
            </g>
        </g>
    </g>
</svg>
